<mxfile host="drawio-plugin" modified="2023-02-02T07:43:03.147Z" agent="5.0 (Windows NT 6.2; Win64; x64) AppleWebKit/537.36 (KHTML, like Gecko) Chrome/104.0.5112.102 Safari/537.36" etag="agSNLrhL9t4i2Ei78XFi" version="20.5.3" type="embed"><diagram id="Yt4aHs9mjCPx-e8Zh3q1" name="rancher"><mxGraphModel dx="1023" dy="773" grid="0" gridSize="10" guides="1" tooltips="1" connect="1" arrows="1" fold="1" page="0" pageScale="1" pageWidth="1169" pageHeight="827" math="0" shadow="0"><root><mxCell id="0"/><mxCell id="1" parent="0"/><mxCell id="4NHMdAQNv5KDr3I7ztfR-1" value="" style="rounded=0;whiteSpace=wrap;html=1;fillColor=#dae8fc;strokeColor=#6c8ebf;" parent="1" vertex="1"><mxGeometry x="80" y="80" width="790" height="590" as="geometry"/></mxCell><mxCell id="4NHMdAQNv5KDr3I7ztfR-2" value="&lt;b&gt;&lt;font style=&quot;font-size: 16px&quot;&gt;Cluster&lt;/font&gt;&lt;/b&gt;" style="text;html=1;strokeColor=none;fillColor=none;align=center;verticalAlign=middle;whiteSpace=wrap;rounded=0;" parent="1" vertex="1"><mxGeometry x="90" y="90" width="90" height="20" as="geometry"/></mxCell><mxCell id="4NHMdAQNv5KDr3I7ztfR-3" value="" style="rounded=1;whiteSpace=wrap;html=1;arcSize=4;fillColor=#fff2cc;strokeColor=#d6b656;" parent="1" vertex="1"><mxGeometry x="90" y="120" width="770" height="250" as="geometry"/></mxCell><mxCell id="4NHMdAQNv5KDr3I7ztfR-4" value="&lt;font style=&quot;font-size: 16px&quot;&gt;&lt;b&gt;Project - &lt;/b&gt;Monitoring&lt;/font&gt;" style="text;html=1;strokeColor=none;fillColor=none;align=center;verticalAlign=middle;whiteSpace=wrap;rounded=0;" parent="1" vertex="1"><mxGeometry x="100" y="130" width="160" height="20" as="geometry"/></mxCell><mxCell id="4NHMdAQNv5KDr3I7ztfR-12" value="" style="rounded=1;whiteSpace=wrap;html=1;arcSize=4;fillColor=#d5e8d4;strokeColor=#82b366;" parent="1" vertex="1"><mxGeometry x="100" y="160" width="750" height="200" as="geometry"/></mxCell><mxCell id="4NHMdAQNv5KDr3I7ztfR-13" value="&lt;font style=&quot;font-size: 16px&quot;&gt;&lt;b&gt;Namespace - &lt;/b&gt;cattle-monitoring&lt;/font&gt;" style="text;html=1;strokeColor=none;fillColor=none;align=center;verticalAlign=middle;whiteSpace=wrap;rounded=0;" parent="1" vertex="1"><mxGeometry x="110" y="170" width="240" height="20" as="geometry"/></mxCell><mxCell id="4NHMdAQNv5KDr3I7ztfR-14" value="" style="rounded=1;whiteSpace=wrap;html=1;arcSize=4;fillColor=#fff2cc;strokeColor=#d6b656;" parent="1" vertex="1"><mxGeometry x="90" y="390" width="770" height="250" as="geometry"/></mxCell><mxCell id="4NHMdAQNv5KDr3I7ztfR-15" value="&lt;font style=&quot;font-size: 16px&quot;&gt;&lt;b&gt;Project - &lt;/b&gt;Test&lt;/font&gt;" style="text;html=1;strokeColor=none;fillColor=none;align=center;verticalAlign=middle;whiteSpace=wrap;rounded=0;" parent="1" vertex="1"><mxGeometry x="100" y="400" width="120" height="20" as="geometry"/></mxCell><mxCell id="4NHMdAQNv5KDr3I7ztfR-16" value="" style="rounded=1;whiteSpace=wrap;html=1;arcSize=4;fillColor=#d5e8d4;strokeColor=#82b366;" parent="1" vertex="1"><mxGeometry x="100" y="430" width="750" height="200" as="geometry"/></mxCell><mxCell id="4NHMdAQNv5KDr3I7ztfR-17" value="&lt;font style=&quot;font-size: 16px&quot;&gt;&lt;b&gt;Namespace - &lt;/b&gt;test&lt;/font&gt;" style="text;html=1;strokeColor=none;fillColor=none;align=center;verticalAlign=middle;whiteSpace=wrap;rounded=0;" parent="1" vertex="1"><mxGeometry x="110" y="440" width="150" height="20" as="geometry"/></mxCell><mxCell id="4NHMdAQNv5KDr3I7ztfR-20" value="test&lt;br&gt;application" style="rounded=1;whiteSpace=wrap;html=1;" parent="1" vertex="1"><mxGeometry x="140" y="500" width="120" height="50" as="geometry"/></mxCell><mxCell id="4NHMdAQNv5KDr3I7ztfR-25" value="test&lt;br&gt;application" style="rounded=1;whiteSpace=wrap;html=1;" parent="1" vertex="1"><mxGeometry x="280" y="500" width="120" height="50" as="geometry"/></mxCell><mxCell id="3" value="" style="rounded=1;whiteSpace=wrap;html=1;arcSize=5;fillColor=#bac8d3;strokeColor=#23445d;" vertex="1" parent="1"><mxGeometry x="187" y="201" width="648" height="152" as="geometry"/></mxCell><mxCell id="4NHMdAQNv5KDr3I7ztfR-10" style="edgeStyle=orthogonalEdgeStyle;rounded=0;orthogonalLoop=1;jettySize=auto;html=1;" parent="1" source="4NHMdAQNv5KDr3I7ztfR-5" target="4NHMdAQNv5KDr3I7ztfR-6" edge="1"><mxGeometry relative="1" as="geometry"/></mxCell><mxCell id="4NHMdAQNv5KDr3I7ztfR-11" style="edgeStyle=orthogonalEdgeStyle;rounded=0;orthogonalLoop=1;jettySize=auto;html=1;" parent="1" source="4NHMdAQNv5KDr3I7ztfR-5" target="4NHMdAQNv5KDr3I7ztfR-7" edge="1"><mxGeometry relative="1" as="geometry"/></mxCell><mxCell id="4NHMdAQNv5KDr3I7ztfR-5" value="Prometheus&lt;br&gt;Operator" style="rounded=1;whiteSpace=wrap;html=1;" parent="1" vertex="1"><mxGeometry x="546" y="290" width="120" height="50" as="geometry"/></mxCell><mxCell id="4NHMdAQNv5KDr3I7ztfR-6" value="Prometheus" style="rounded=1;whiteSpace=wrap;html=1;" parent="1" vertex="1"><mxGeometry x="387" y="290" width="120" height="50" as="geometry"/></mxCell><mxCell id="4NHMdAQNv5KDr3I7ztfR-7" value="Alertmanager" style="rounded=1;whiteSpace=wrap;html=1;" parent="1" vertex="1"><mxGeometry x="698" y="290" width="120" height="50" as="geometry"/></mxCell><mxCell id="4NHMdAQNv5KDr3I7ztfR-8" value="Grafana" style="rounded=1;whiteSpace=wrap;html=1;" parent="1" vertex="1"><mxGeometry x="385" y="225" width="120" height="50" as="geometry"/></mxCell><mxCell id="4NHMdAQNv5KDr3I7ztfR-9" value="node-exporter" style="rounded=1;whiteSpace=wrap;html=1;" parent="1" vertex="1"><mxGeometry x="696" y="225" width="120" height="50" as="geometry"/></mxCell><mxCell id="2" value="kube-state-metrics" style="rounded=1;whiteSpace=wrap;html=1;" vertex="1" parent="1"><mxGeometry x="543" y="225" width="120" height="50" as="geometry"/></mxCell><mxCell id="4" value="&lt;span style=&quot;font-size: 16px;&quot;&gt;kube-prometheus&lt;/span&gt;" style="text;html=1;strokeColor=none;fillColor=none;align=center;verticalAlign=middle;whiteSpace=wrap;rounded=0;" vertex="1" parent="1"><mxGeometry x="202" y="222" width="153" height="20" as="geometry"/></mxCell></root></mxGraphModel></diagram></mxfile>